<svg width="24" height="24" viewBox="0 0 24 24" fill="none" xmlns="http://www.w3.org/2000/svg">
<g id="Country=United States">
<g id="Group">
<mask id="mask0_81_3590" style="mask-type:alpha" maskUnits="userSpaceOnUse" x="0" y="0" width="24" height="24">
<path id="Clip 2" fill-rule="evenodd" clip-rule="evenodd" d="M12.3427 24H11.6573C5.18833 23.8185 0 18.5165 0 12.0024C0 5.37363 5.37256 0 12 0C18.6274 0 24 5.37363 24 12.0024C24 18.5165 18.8117 23.8185 12.3427 24V24Z" fill="white"/>
</mask>
<g mask="url(#mask0_81_3590)">
<path id="Fill 1" fill-rule="evenodd" clip-rule="evenodd" d="M0 24H24V0H0V24Z" fill="#FFFFFE"/>
<path id="Fill 3" fill-rule="evenodd" clip-rule="evenodd" d="M0 1.84653H24V0H0V1.84653Z" fill="#CF142B"/>
<path id="Fill 4" fill-rule="evenodd" clip-rule="evenodd" d="M0 5.53964H24V3.69312H0V5.53964Z" fill="#CF142B"/>
<path id="Fill 5" fill-rule="evenodd" clip-rule="evenodd" d="M0 9.23264H24V7.38611H0V9.23264Z" fill="#CF142B"/>
<path id="Fill 6" fill-rule="evenodd" clip-rule="evenodd" d="M0 12.9257H24V11.0792H0V12.9257Z" fill="#CF142B"/>
<path id="Fill 7" fill-rule="evenodd" clip-rule="evenodd" d="M0 16.6187H24V14.7722H0V16.6187Z" fill="#CF142B"/>
<path id="Fill 8" fill-rule="evenodd" clip-rule="evenodd" d="M0 20.3117H24V18.4652H0V20.3117Z" fill="#CF142B"/>
<path id="Fill 9" fill-rule="evenodd" clip-rule="evenodd" d="M0 23.9999H24V22.1582H0V23.9999Z" fill="#CF142B"/>
<path id="Fill 10" fill-rule="evenodd" clip-rule="evenodd" d="M0 12.9256H18.24V0H0V12.9256Z" fill="#00247D"/>
<path id="Fill 11" fill-rule="evenodd" clip-rule="evenodd" d="M0.856956 1.04935L1.29144 1.3651L1.12544 1.876L1.56 1.56026L1.99448 1.876L1.82848 1.3651L2.26296 1.04935H1.72592L1.56 0.538452L1.394 1.04935H0.856956" fill="#FFFFFE"/>
<path id="Fill 12" fill-rule="evenodd" clip-rule="evenodd" d="M3.88096 1.04935L4.31544 1.3651L4.14944 1.876L4.584 1.56026L5.01848 1.876L4.85248 1.3651L5.28696 1.04935H4.74992L4.58392 0.538452L4.418 1.04935H3.88096" fill="#FFFFFE"/>
<path id="Fill 13" fill-rule="evenodd" clip-rule="evenodd" d="M6.90496 1.04935L7.33944 1.3651L7.17344 1.876L7.608 1.56026L8.04248 1.876L7.87648 1.3651L8.31096 1.04935H7.77392L7.608 0.538452L7.442 1.04935H6.90496" fill="#FFFFFE"/>
<path id="Fill 14" fill-rule="evenodd" clip-rule="evenodd" d="M9.92896 1.04935L10.3634 1.3651L10.1975 1.876L10.632 1.56026L11.0665 1.876L10.9006 1.3651L11.335 1.04935H10.7979L10.632 0.538452L10.466 1.04935H9.92896" fill="#FFFFFE"/>
<path id="Fill 15" fill-rule="evenodd" clip-rule="evenodd" d="M12.953 1.04935L13.3874 1.3651L13.2214 1.876L13.656 1.56026L14.0905 1.876L13.9245 1.3651L14.359 1.04935H13.8219L13.656 0.538452L13.49 1.04935H12.953" fill="#FFFFFE"/>
<path id="Fill 16" fill-rule="evenodd" clip-rule="evenodd" d="M15.977 1.04935L16.4114 1.3651L16.2454 1.876L16.6799 1.56026L17.1145 1.876L16.9485 1.3651L17.383 1.04935H16.8459L16.6799 0.538452L16.514 1.04935H15.977" fill="#FFFFFE"/>
<path id="Fill 17" fill-rule="evenodd" clip-rule="evenodd" d="M2.36896 2.34562L2.80344 2.66136L2.63744 3.17226L3.07192 2.85652L3.50648 3.17226L3.34048 2.66136L3.77496 2.34562H3.23792L3.07192 1.83472L2.906 2.34562H2.36896" fill="#FFFFFE"/>
<path id="Fill 18" fill-rule="evenodd" clip-rule="evenodd" d="M5.39296 2.34562L5.82744 2.66136L5.66144 3.17226L6.096 2.85652L6.53048 3.17226L6.36448 2.66136L6.79896 2.34562H6.26192L6.09592 1.83472L5.93 2.34562H5.39296" fill="#FFFFFE"/>
<path id="Fill 19" fill-rule="evenodd" clip-rule="evenodd" d="M8.41696 2.34562L8.85144 2.66136L8.68552 3.17226L9.12 2.85652L9.55448 3.17226L9.38848 2.66136L9.82296 2.34562H9.28592L9.12 1.83472L8.954 2.34562H8.41696" fill="#FFFFFE"/>
<path id="Fill 20" fill-rule="evenodd" clip-rule="evenodd" d="M11.441 2.34562L11.8754 2.66136L11.7094 3.17226L12.1439 2.85652L12.5785 3.17226L12.4125 2.66136L12.847 2.34562H12.3099L12.1439 1.83472L11.978 2.34562H11.441" fill="#FFFFFE"/>
<path id="Fill 21" fill-rule="evenodd" clip-rule="evenodd" d="M14.465 2.34562L14.8994 2.66136L14.7334 3.17226L15.1679 2.85652L15.6024 3.17226L15.4365 2.66136L15.871 2.34562H15.3339L15.1679 1.83472L15.002 2.34562H14.465" fill="#FFFFFE"/>
<path id="Fill 22" fill-rule="evenodd" clip-rule="evenodd" d="M0.856956 3.64188L1.29144 3.95763L1.12544 4.46845L1.56 4.15271L1.99448 4.46845L1.82848 3.95755L2.26296 3.64188H1.72592L1.56 3.13098L1.394 3.64188H0.856956" fill="#FFFFFE"/>
<path id="Fill 23" fill-rule="evenodd" clip-rule="evenodd" d="M3.88096 3.64188L4.31544 3.95763L4.14944 4.46845L4.584 4.15271L5.01848 4.46845L4.85248 3.95755L5.28696 3.64188H4.74992L4.58392 3.13098L4.418 3.64188H3.88096" fill="#FFFFFE"/>
<path id="Fill 24" fill-rule="evenodd" clip-rule="evenodd" d="M6.90496 3.64188L7.33944 3.95763L7.17344 4.46845L7.608 4.15271L8.04248 4.46845L7.87648 3.95755L8.31096 3.64188H7.77392L7.608 3.13098L7.442 3.64188H6.90496" fill="#FFFFFE"/>
<path id="Fill 25" fill-rule="evenodd" clip-rule="evenodd" d="M9.92896 3.64188L10.3634 3.95763L10.1975 4.46845L10.632 4.15271L11.0665 4.46845L10.9006 3.95755L11.335 3.64188H10.7979L10.632 3.13098L10.466 3.64188H9.92896" fill="#FFFFFE"/>
<path id="Fill 26" fill-rule="evenodd" clip-rule="evenodd" d="M12.953 3.64188L13.3874 3.95763L13.2214 4.46845L13.656 4.15271L14.0905 4.46845L13.9245 3.95755L14.359 3.64188H13.8219L13.656 3.13098L13.49 3.64188H12.953" fill="#FFFFFE"/>
<path id="Fill 27" fill-rule="evenodd" clip-rule="evenodd" d="M15.977 3.64188L16.4114 3.95763L16.2454 4.46845L16.6799 4.15271L17.1145 4.46845L16.9485 3.95755L17.383 3.64188H16.8459L16.6799 3.13098L16.514 3.64188H15.977" fill="#FFFFFE"/>
<path id="Fill 28" fill-rule="evenodd" clip-rule="evenodd" d="M2.40624 4.94242L2.84072 5.25816L2.6748 5.76907L3.10928 5.45332L3.54376 5.76907L3.37776 5.25816L3.81224 4.94242H3.2752L3.10928 4.43152L2.94328 4.94242H2.40624" fill="#FFFFFE"/>
<path id="Fill 29" fill-rule="evenodd" clip-rule="evenodd" d="M5.43024 4.94242L5.86472 5.25816L5.6988 5.76907L6.13328 5.45332L6.56776 5.76907L6.40176 5.25816L6.83632 4.94242H6.29928L6.13328 4.43152L5.96728 4.94242H5.43024" fill="#FFFFFE"/>
<path id="Fill 30" fill-rule="evenodd" clip-rule="evenodd" d="M8.45424 4.94242L8.88872 5.25816L8.7228 5.76907L9.15728 5.45332L9.59176 5.76907L9.42584 5.25816L9.86032 4.94242H9.32328L9.15728 4.43152L8.99136 4.94242H8.45424" fill="#FFFFFE"/>
<path id="Fill 31" fill-rule="evenodd" clip-rule="evenodd" d="M11.4782 4.94242L11.9127 5.25816L11.7468 5.76907L12.1813 5.45332L12.6158 5.76907L12.4498 5.25816L12.8843 4.94242H12.3472L12.1813 4.43152L12.0153 4.94242H11.4782" fill="#FFFFFE"/>
<path id="Fill 32" fill-rule="evenodd" clip-rule="evenodd" d="M14.5022 4.94242L14.9367 5.25816L14.7707 5.76907L15.2053 5.45332L15.6398 5.76907L15.4738 5.25816L15.9082 4.94242H15.3712L15.2053 4.43152L15.0393 4.94242H14.5022" fill="#FFFFFE"/>
<path id="Fill 33" fill-rule="evenodd" clip-rule="evenodd" d="M0.902802 6.22782L1.33736 6.54356L1.17136 7.05447L1.60584 6.73872L2.04032 7.05447L1.8744 6.54356L2.30888 6.22782H1.77184L1.60584 5.71692L1.43992 6.22782H0.902802" fill="#FFFFFE"/>
<path id="Fill 34" fill-rule="evenodd" clip-rule="evenodd" d="M3.9268 6.22782L4.36128 6.54356L4.19536 7.05447L4.62984 6.73872L5.06432 7.05447L4.8984 6.54356L5.33288 6.22782H4.79584L4.62984 5.71692L4.46384 6.22782H3.9268" fill="#FFFFFE"/>
<path id="Fill 35" fill-rule="evenodd" clip-rule="evenodd" d="M6.9508 6.22782L7.38536 6.54356L7.21936 7.05447L7.65384 6.73872L8.08832 7.05447L7.9224 6.54356L8.35688 6.22782H7.81984L7.65384 5.71692L7.48792 6.22782H6.9508" fill="#FFFFFE"/>
<path id="Fill 36" fill-rule="evenodd" clip-rule="evenodd" d="M9.97488 6.22782L10.4094 6.54356L10.2434 7.05447L10.6778 6.73872L11.1124 7.05447L10.9464 6.54356L11.3809 6.22782H10.8438L10.6778 5.71692L10.5119 6.22782H9.97488" fill="#FFFFFE"/>
<path id="Fill 37" fill-rule="evenodd" clip-rule="evenodd" d="M12.9988 6.22782L13.4333 6.54356L13.2674 7.05447L13.7018 6.73872L14.1363 7.05447L13.9704 6.54356L14.4049 6.22782H13.8678L13.7018 5.71692L13.5359 6.22782H12.9988" fill="#FFFFFE"/>
<path id="Fill 38" fill-rule="evenodd" clip-rule="evenodd" d="M16.0228 6.22782L16.4573 6.54356L16.2914 7.05447L16.7258 6.73872L17.1603 7.05447L16.9944 6.54356L17.4289 6.22782H16.8918L16.7258 5.71692L16.5598 6.22782H16.0228" fill="#FFFFFE"/>
<path id="Fill 39" fill-rule="evenodd" clip-rule="evenodd" d="M0.931198 8.77933L1.36568 9.09508L1.19968 9.60598L1.63416 9.29024L2.06872 9.60598L1.90272 9.09508L2.3372 8.77933H1.80016L1.63416 8.26843L1.46824 8.77933H0.931198" fill="#FFFFFE"/>
<path id="Fill 40" fill-rule="evenodd" clip-rule="evenodd" d="M3.9552 8.77933L4.38968 9.09508L4.22368 9.60598L4.65816 9.29024L5.09264 9.60598L4.92672 9.09508L5.3612 8.77933H4.82416L4.65816 8.26843L4.49224 8.77933H3.9552" fill="#FFFFFE"/>
<path id="Fill 41" fill-rule="evenodd" clip-rule="evenodd" d="M6.9792 8.77933L7.41368 9.09508L7.24768 9.60598L7.68216 9.29024L8.11672 9.60598L7.95072 9.09508L8.3852 8.77933H7.84816L7.68216 8.26843L7.51624 8.77933H6.9792" fill="#FFFFFE"/>
<path id="Fill 42" fill-rule="evenodd" clip-rule="evenodd" d="M10.0032 8.77933L10.4377 9.09508L10.2717 9.60598L10.7062 9.29024L11.1407 9.60598L10.9747 9.09508L11.4092 8.77933H10.8722L10.7062 8.26843L10.5402 8.77933H10.0032" fill="#FFFFFE"/>
<path id="Fill 43" fill-rule="evenodd" clip-rule="evenodd" d="M13.0272 8.77933L13.4617 9.09508L13.2957 9.60598L13.7302 9.29024L14.1647 9.60598L13.9987 9.09508L14.4332 8.77933H13.8962L13.7302 8.26843L13.5642 8.77933H13.0272" fill="#FFFFFE"/>
<path id="Fill 44" fill-rule="evenodd" clip-rule="evenodd" d="M16.0511 8.77933L16.4856 9.09508L16.3197 9.60598L16.7542 9.29024L17.1886 9.60598L17.0227 9.09508L17.4572 8.77933H16.9202L16.7542 8.26843L16.5882 8.77933H16.0511" fill="#FFFFFE"/>
<path id="Fill 45" fill-rule="evenodd" clip-rule="evenodd" d="M0.894241 11.3609L1.32872 11.6766L1.1628 12.1875L1.59728 11.8718L2.03176 12.1875L1.86576 11.6766L2.30024 11.3609H1.7632L1.59728 10.85L1.43128 11.3609H0.894241" fill="#FFFFFE"/>
<path id="Fill 46" fill-rule="evenodd" clip-rule="evenodd" d="M3.91824 11.3609L4.35272 11.6766L4.18672 12.1875L4.62128 11.8718L5.05576 12.1875L4.88976 11.6766L5.32424 11.3609H4.7872L4.62128 10.85L4.45528 11.3609H3.91824" fill="#FFFFFE"/>
<path id="Fill 47" fill-rule="evenodd" clip-rule="evenodd" d="M6.94224 11.3609L7.37672 11.6766L7.21072 12.1875L7.64528 11.8718L8.07976 12.1875L7.91376 11.6766L8.34824 11.3609H7.8112L7.64528 10.85L7.47928 11.3609H6.94224" fill="#FFFFFE"/>
<path id="Fill 48" fill-rule="evenodd" clip-rule="evenodd" d="M9.96624 11.3609L10.4007 11.6766L10.2348 12.1875L10.6693 11.8718L11.1038 12.1875L10.9378 11.6766L11.3723 11.3609H10.8352L10.6693 10.85L10.5033 11.3609H9.96624" fill="#FFFFFE"/>
<path id="Fill 49" fill-rule="evenodd" clip-rule="evenodd" d="M12.9902 11.3609L13.4247 11.6766L13.2587 12.1875L13.6933 11.8718L14.1278 12.1875L13.9618 11.6766L14.3962 11.3609H13.8592L13.6933 10.85L13.5273 11.3609H12.9902" fill="#FFFFFE"/>
<path id="Fill 50" fill-rule="evenodd" clip-rule="evenodd" d="M16.0142 11.3609L16.4487 11.6766L16.2827 12.1875L16.7172 11.8718L17.1518 12.1875L16.9858 11.6766L17.4202 11.3609H16.8832L16.7172 10.85L16.5513 11.3609H16.0142" fill="#FFFFFE"/>
<path id="Fill 51" fill-rule="evenodd" clip-rule="evenodd" d="M2.4152 7.49076L2.84968 7.8065L2.68376 8.31741L3.11824 8.00166L3.55272 8.31741L3.3868 7.8065L3.82128 7.49076H3.28416L3.11824 6.97986L2.95224 7.49076H2.4152" fill="#FFFFFE"/>
<path id="Fill 52" fill-rule="evenodd" clip-rule="evenodd" d="M5.4392 7.49076L5.87368 7.8065L5.70776 8.31741L6.14224 8.00166L6.57672 8.31741L6.4108 7.8065L6.84528 7.49076H6.30824L6.14224 6.97986L5.97624 7.49076H5.4392" fill="#FFFFFE"/>
<path id="Fill 53" fill-rule="evenodd" clip-rule="evenodd" d="M8.46328 7.49076L8.89776 7.8065L8.73176 8.31741L9.16624 8.00166L9.6008 8.31741L9.4348 7.8065L9.86928 7.49076H9.33224L9.16624 6.97986L9.00032 7.49076H8.46328" fill="#FFFFFE"/>
<path id="Fill 54" fill-rule="evenodd" clip-rule="evenodd" d="M11.4872 7.49076L11.9217 7.8065L11.7558 8.31741L12.1902 8.00166L12.6247 8.31741L12.4588 7.8065L12.8933 7.49076H12.3562L12.1902 6.97986L12.0242 7.49076H11.4872" fill="#FFFFFE"/>
<path id="Fill 55" fill-rule="evenodd" clip-rule="evenodd" d="M14.5112 7.49076L14.9457 7.8065L14.7798 8.31741L15.2142 8.00166L15.6487 8.31741L15.4827 7.8065L15.9173 7.49076H15.3802L15.2142 6.97986L15.0482 7.49076H14.5112" fill="#FFFFFE"/>
<path id="Fill 56" fill-rule="evenodd" clip-rule="evenodd" d="M2.40624 10.0683L2.84072 10.384L2.6748 10.8949L3.10928 10.5792L3.54376 10.8949L3.37784 10.384L3.81232 10.0683H3.27528L3.10928 9.55737L2.94328 10.0683H2.40624" fill="#FFFFFE"/>
<path id="Fill 57" fill-rule="evenodd" clip-rule="evenodd" d="M5.43024 10.0683L5.86472 10.384L5.6988 10.8949L6.13328 10.5792L6.56776 10.8949L6.40184 10.384L6.83632 10.0683H6.29928L6.13328 9.55737L5.96736 10.0683H5.43024" fill="#FFFFFE"/>
<path id="Fill 58" fill-rule="evenodd" clip-rule="evenodd" d="M8.45432 10.0683L8.8888 10.384L8.7228 10.8949L9.15728 10.5792L9.59184 10.8949L9.42584 10.384L9.86032 10.0683H9.32328L9.15728 9.55737L8.99136 10.0683H8.45432" fill="#FFFFFE"/>
<path id="Fill 59" fill-rule="evenodd" clip-rule="evenodd" d="M11.4782 10.0683L11.9127 10.384L11.7468 10.8949L12.1813 10.5792L12.6158 10.8949L12.4498 10.384L12.8843 10.0683H12.3473L12.1813 9.55737L12.0154 10.0683H11.4782" fill="#FFFFFE"/>
<path id="Fill 60" fill-rule="evenodd" clip-rule="evenodd" d="M14.5022 10.0683L14.9367 10.384L14.7708 10.8949L15.2053 10.5792L15.6398 10.8949L15.4738 10.384L15.9083 10.0683H15.3712L15.2053 9.55737L15.0393 10.0683H14.5022" fill="#FFFFFE"/>
</g>
</g>
</g>
</svg>
